<?xml version="1.0" standalone="no"?>
<!DOCTYPE svg PUBLIC "-//W3C//DTD SVG 20010904//EN"
 "http://www.w3.org/TR/2001/REC-SVG-20010904/DTD/svg10.dtd">
<svg version="1.0" xmlns="http://www.w3.org/2000/svg"
 width="83.000000pt" height="84.000000pt" viewBox="0 0 83.000000 84.000000"
 preserveAspectRatio="xMidYMid meet">

<g transform="translate(0.000000,84.000000) scale(0.100000,-0.100000)"
fill="#000000" stroke="none">
<path d="M485 736 c-13 -19 -321 -119 -345 -113 -25 6 -42 -14 -30 -33 13 -20
13 -367 0 -375 -19 -12 2 -37 28 -32 28 5 352 -99 352 -114 0 -5 9 -9 20 -9
14 0 20 7 20 21 0 25 197 299 215 299 26 0 23 25 -6 50 -45 40 -209 272 -209
297 0 26 -29 32 -45 9z m13 -140 c2 -92 0 -108 -12 -103 -8 3 -34 11 -58 17
-24 7 -46 14 -50 16 -4 3 16 37 45 77 60 81 70 97 63 97 -2 0 -32 -38 -65 -84
l-61 -84 -108 36 -107 36 160 53 c88 29 167 51 175 50 12 -2 16 -23 18 -111z
m136 -50 c47 -66 84 -121 82 -124 -3 -2 -50 11 -105 29 l-101 33 0 110 c0 131
-8 134 124 -48z m-374 9 c47 -15 87 -29 89 -31 5 -4 -69 -104 -77 -104 -7 0
-114 145 -121 163 -2 6 3 8 10 5 8 -3 52 -18 99 -33z m-61 -59 c33 -46 61 -88
61 -93 0 -11 -117 -173 -125 -173 -3 0 -5 79 -5 175 0 96 2 175 4 175 2 0 31
-38 65 -84z m244 -2 l58 -18 -3 -75 -3 -75 -60 -18 c-33 -10 -63 -18 -66 -18
-4 0 -25 25 -48 55 -27 35 -39 60 -34 68 30 49 79 107 87 104 6 -3 37 -13 69
-23z m182 -57 l100 -34 -95 -31 c-52 -18 -101 -32 -108 -32 -8 0 -12 20 -12
65 0 36 4 65 8 65 4 0 53 -15 107 -33z m-291 -129 l16 -26 -96 -32 c-52 -18
-97 -30 -100 -28 -2 3 24 42 57 88 l61 83 23 -29 c13 -16 31 -41 39 -56z m386
77 c0 -6 -184 -262 -202 -280 -5 -6 -8 35 -6 104 l3 114 95 33 c102 35 110 37
110 29z m-222 -222 l-3 -58 -59 82 c-33 46 -61 81 -64 79 -2 -3 20 -37 50 -78
69 -93 72 -99 56 -94 -7 3 -85 28 -173 57 l-160 53 175 56 175 56 3 -47 c2
-27 2 -74 0 -106z"/>
</g>
</svg>
